<?xml version="1.0" encoding="UTF-8" standalone="no"?>
<svg width="50px" height="35px" viewBox="0 0 98 103" version="1.1" xmlns="http://www.w3.org/2000/svg" xmlns:xlink="http://www.w3.org/1999/xlink">
    <!-- Generator: Sketch 50.2 (55047) - http://www.bohemiancoding.com/sketch -->
    <title>realBanana</title>
    <desc>Created with Sketch.</desc>
    <defs></defs>
    <g id="Page-1" stroke="none" stroke-width="1" fill="none" fill-rule="evenodd">
        <g id="realBanana" transform="translate(1.000000, 1.000000)">
            <ellipse id="Oval" stroke="#979797" stroke-width="0.61875" fill="#2E282A" cx="48" cy="50.5" rx="48" ry="50.5"></ellipse>
            <path d="M82.0090423,36.5560352 C81.657031,35.0962922 80.611973,33.8998897 79.2501833,33.2257672 L77.930729,25.6761818 C77.6383009,24.0015118 75.9621314,22.8241814 74.1174042,23.1109952 L72.48749,23.3603985 C70.6803943,23.6369428 69.4510988,25.2382589 69.7466628,26.9283332 L70.9869342,34.0231243 C70.9547906,34.0473311 70.923431,34.0722714 70.8912875,34.0972118 C70.8661998,34.1155502 70.8426801,34.1353558 70.8175924,34.1536943 C70.6921541,34.2541892 70.5698518,34.3561511 70.4546053,34.4669155 C69.9748037,34.9011707 69.5679132,35.411714 69.285677,36.0000125 C69.2535334,36.0667645 69.2174699,36.131316 69.1845423,36.198068 C63.7640391,42.006965 56.313003,45.7978955 48.0622977,46.9055397 C46.5139185,47.1131313 44.9302597,47.218761 43.3552249,47.218761 C36.710914,47.218761 30.1152105,45.3893142 24.2815448,41.9284763 C23.3391894,41.3695194 22.2604199,40.8406376 20.982517,40.3124894 L19.7265659,39.7924101 C17.6513457,38.9341692 15.1849148,39.6156272 13.9156358,41.3460461 C13.0297277,42.5534517 12.8478422,44.038135 13.4170185,45.4193893 L13.456218,45.5147494 C14.5812429,48.2427817 16.1249182,50.6854672 18.0449084,52.7745869 C18.1938664,52.936699 18.3538003,53.0870746 18.5058942,53.245519 C17.9077103,53.6496991 17.405173,54.1866498 17.0539457,54.8321643 C16.2472206,56.3161141 16.3993145,58.0766082 17.4482924,59.4233862 L17.5149315,59.5099438 C19.3549549,61.87194 21.5219018,63.8576306 23.9554051,65.4120002 C24.2462652,65.5975856 24.5410453,65.7751021 24.8358253,65.9526186 C24.3881673,66.427952 24.0463479,67.0015796 23.8432946,67.6500283 C23.295286,69.3943845 23.894254,71.1878878 25.4026497,72.3263407 L25.4920245,72.3945598 C27.9239599,74.2306084 30.5660045,75.6243329 33.3460312,76.5353886 C37.4329683,77.8762983 41.6947351,78.5555556 46.0129492,78.5555556 C55.2663771,78.5555556 64.065875,75.4138072 70.7893688,69.7090728 C80.6300048,61.3606632 84.9286191,48.6572313 82.0090423,36.5560352 Z M75.2526209,28.5325834 L75.917444,32.3337835 L73.9229748,32.6389358 L73.2605037,28.8487388 L75.2526209,28.5325834 Z M16.3820667,44.4577194 L16.3428673,44.3623593 C16.0810148,43.7278479 16.3303234,43.2400443 16.5020171,43.0060453 C16.8030691,42.5952634 17.3024704,42.3407253 17.8057916,42.3407253 C18.0229567,42.3407253 18.2424738,42.3862047 18.4588549,42.4756965 L19.71559,42.9950423 C20.8649186,43.4703757 21.7821863,43.9185681 22.6030233,44.4056381 C28.9400103,48.1650265 36.115866,50.1521842 43.3560089,50.1521842 C45.0792177,50.1521842 46.8134025,50.0370186 48.5083877,49.8088879 C53.6513587,49.1186275 58.5073896,47.4666972 62.8318756,44.9983378 C59.6198707,48.1591582 55.7250109,50.7126082 51.3283979,52.4723687 C47.1317022,54.1521735 42.6261147,55.004546 37.9347216,55.004546 C34.2476191,55.004546 30.5620845,54.4727301 26.9808206,53.4237691 C25.9161628,53.1120149 24.7276348,52.8626116 23.3478133,52.6616218 L22.0173831,52.4679675 C21.4709425,51.9493553 20.9354777,51.4182729 20.4235325,50.8615166 C18.7379551,49.0276686 17.3785174,46.873264 16.3820667,44.4577194 Z M20.0527055,57.7846596 L19.9860664,57.698102 C19.4702013,57.0357161 19.71951,56.4034053 19.8504362,56.1620709 C20.1287525,55.649327 20.6469695,55.3434411 21.2365296,55.3434411 C21.3251204,55.3434411 21.4152792,55.350043 21.50779,55.3632467 L22.8656598,55.5613023 C24.1067151,55.7424865 25.1164936,55.9530122 26.0439531,56.2244217 C29.929405,57.362141 33.9301033,57.9394364 37.9347216,57.9394364 C43.0526049,57.9394364 47.9737069,57.0078416 52.5616134,55.1710594 C57.734376,53.1002783 62.2713231,50.0230813 65.9200101,46.1888719 C63.6534966,50.5160197 60.3591727,54.3560974 56.2055965,57.4098211 C49.8137302,62.1088732 41.4673782,64.5552264 32.9509005,64.2244002 C31.792164,64.1774537 30.6255877,64.2266008 29.2300864,64.3674404 L28.2626434,64.4650011 C27.3986869,64.0087397 26.5511943,63.5172684 25.7233014,62.9883867 C23.5884981,61.6247373 21.6794837,59.8723122 20.0527055,57.7846596 Z M68.6835731,67.5355962 C62.5378795,72.7495928 54.4870915,75.6213988 46.0137332,75.6213988 C42.0490984,75.6213988 38.1369909,74.9971569 34.3840332,73.7662781 C31.943474,72.9659869 29.6150252,71.7365752 27.466894,70.1139865 L27.3767352,70.0457673 C26.6139135,69.469939 26.7832552,68.6997229 26.8530303,68.476727 C26.9228053,68.253731 27.2269932,67.5201918 28.2014922,67.4218976 L29.5679858,67.2839922 C30.5173971,67.1886321 31.3531299,67.1416856 32.1230076,67.1416856 C32.3558524,67.1416856 32.5886973,67.1460869 32.8223262,67.1548893 C42.0906498,67.5165241 51.169248,64.8449744 58.1451865,59.7153348 C65.6369899,54.2064554 70.5902355,46.3568524 72.0907914,37.6130652 C72.2468053,36.7064107 73.0472585,35.9897429 74.0374372,35.8709096 L76.441149,35.5818951 C77.6045894,35.4381214 78.6990387,36.1643252 78.9499153,37.2015497 C81.6209675,48.2735903 77.6869083,59.8965189 68.6835731,67.5355962 Z" id="Shape" fill="#FFC914" fill-rule="nonzero"></path>
        </g>
    </g>
</svg>